<svg xmlns="http://www.w3.org/2000/svg" viewBox="0 0 1215.73 315.62"><defs><style>.cls-1,.cls-2{fill:#2d2770;}.cls-2,.cls-3{fill-rule:evenodd;}.cls-3{fill:#e31b23;}</style></defs><title>LogoBanred</title><g id="Capa_2" data-name="Capa 2"><g id="Capa_1-2" data-name="Capa 1"><path class="cls-1" d="M21.28,314.89H0V278.2H4.89v32.36H21.28Z"/><path class="cls-1" d="M21.1,314.89,33.49,278.2h6l12.35,36.69H46.71L43.41,304.6h-14l-3.32,10.28ZM42,300.43l-5.64-17.23-5.63,17.23Z"/><path class="cls-1" d="M99.48,314.89H93.15L81.54,300.3H76v14.59H71.07V278.2h9.45a35.43,35.43,0,0,1,5.33.32,10.71,10.71,0,0,1,4,1.61,9.34,9.34,0,0,1,3,3.15A9.89,9.89,0,0,1,94,288.12a11,11,0,0,1-2,6.79,12,12,0,0,1-5.55,4ZM89,288.53a6.26,6.26,0,0,0-.61-2.82,5.1,5.1,0,0,0-1.73-2.07,8.18,8.18,0,0,0-2.41-.93,16.54,16.54,0,0,0-3.45-.27H76v13.8h4.28a17.68,17.68,0,0,0,3.8-.38,5.72,5.72,0,0,0,2.86-1.53,6.07,6.07,0,0,0,1.58-2.46A10.58,10.58,0,0,0,89,288.53Z"/><path class="cls-1" d="M102.37,314.89V278.2h22.95v4.32H107.22v10.1H124.1v4.33H107.22v13.62h18.09v4.32Z"/><path class="cls-1" d="M159.56,296.56a20,20,0,0,1-2,9.05,15.47,15.47,0,0,1-5.46,6.27,16.54,16.54,0,0,1-5.64,2.39,37.47,37.47,0,0,1-7.33.61h-8.44V278.2H139a34.46,34.46,0,0,1,8.11.76,16.49,16.49,0,0,1,5,2.16,15.15,15.15,0,0,1,5.46,6.21A20,20,0,0,1,159.56,296.56Zm-5.07-.09a16.33,16.33,0,0,0-1.4-7.16,10.64,10.64,0,0,0-4.15-4.67,12.77,12.77,0,0,0-4.19-1.67,21.09,21.09,0,0,0-5.49-.53h-3.74v28.19h3.74a27.93,27.93,0,0,0,5.68-.49,13,13,0,0,0,4.46-1.94,10.82,10.82,0,0,0,3.83-4.56A17.62,17.62,0,0,0,154.48,296.47Z"/><path class="cls-1" d="M193.4,314.89H179.17v-3.76h4.67V281.95h-4.67V278.2H193.4v3.74h-4.69v29.18h4.69Z"/><path class="cls-1" d="M225.65,314.89H220.2L204,283.24v31.65h-4.57V278.2h6.93l14.76,29v-29h4.56Z"/><path class="cls-1" d="M241.63,314.89V282.52H229.34V278.2h29.48v4.32H246.52v32.37Z"/><path class="cls-1" d="M262.51,314.89V278.2h23v4.32H267.37v10.1h16.87v4.33H267.37v13.62h18.09v4.32Z"/><path class="cls-1" d="M319.19,314.89h-6.32L301.26,300.3h-5.57v14.59h-4.91V278.2h9.48a34.55,34.55,0,0,1,5.3.32,10.4,10.4,0,0,1,4,1.61,9.18,9.18,0,0,1,3,3.15,9.93,9.93,0,0,1,1.14,4.83,11.22,11.22,0,0,1-2,6.79,12.28,12.28,0,0,1-5.59,4Zm-10.5-26.36a6.69,6.69,0,0,0-.56-2.82,5.88,5.88,0,0,0-1.76-2.07,7.57,7.57,0,0,0-2.43-.93,16.21,16.21,0,0,0-3.41-.27h-4.84v13.8H300a17,17,0,0,0,3.73-.38,5.53,5.53,0,0,0,2.91-1.53,7,7,0,0,0,1.57-2.46A9.62,9.62,0,0,0,308.69,288.53Z"/><path class="cls-1" d="M347,303.64a10.38,10.38,0,0,1-1,4.78,9.14,9.14,0,0,1-2.77,3.45,14.16,14.16,0,0,1-4.43,2.32,22.71,22.71,0,0,1-6.11.71H322.08V278.2h9.7a50.68,50.68,0,0,1,5.9.26,11.55,11.55,0,0,1,3.76,1.18,7,7,0,0,1,2.87,2.79,9.12,9.12,0,0,1-.42,8.69,9.31,9.31,0,0,1-3.85,3.19v.21a9,9,0,0,1,5.09,3.21A9.23,9.23,0,0,1,347,303.64Zm-6.8-16.49a5.23,5.23,0,0,0-.45-2.27,3.46,3.46,0,0,0-1.39-1.54,6.74,6.74,0,0,0-2.67-.82c-1-.08-2.31-.15-4-.15H327v10.72h5.52a18.77,18.77,0,0,0,3.36-.22,7.27,7.27,0,0,0,2.23-1A4,4,0,0,0,339.7,290,8.14,8.14,0,0,0,340.15,287.14Zm1.73,16.66a8,8,0,0,0-.59-3.38,4.9,4.9,0,0,0-2.36-2.31,7.47,7.47,0,0,0-2.56-.76,29.41,29.41,0,0,0-3.86-.18H327v13.51h4a32.47,32.47,0,0,0,5-.32,7.63,7.63,0,0,0,3.28-1.25,5.85,5.85,0,0,0,2-2.17A6.05,6.05,0,0,0,341.87,303.8Z"/><path class="cls-1" d="M347.81,314.89l12.38-36.69h6l12.37,36.69h-5.15l-3.3-10.28h-14l-3.34,10.28Zm20.94-14.46-5.65-17.23-5.65,17.23Z"/><path class="cls-1" d="M408.28,314.89h-5.45l-16.27-31.65v31.65H382V278.2h6.92l14.76,29v-29h4.57Z"/><path class="cls-1" d="M430,315.49a17.08,17.08,0,0,1-6.57-1.18,13.91,13.91,0,0,1-5.2-3.6,15.24,15.24,0,0,1-3.39-6,25.25,25.25,0,0,1-1.22-8.2,24.14,24.14,0,0,1,1.17-8,16.92,16.92,0,0,1,3.41-6,14.76,14.76,0,0,1,5.19-3.72,16.27,16.27,0,0,1,6.69-1.34,18.88,18.88,0,0,1,3.49.32,21.41,21.41,0,0,1,3,.7,15.73,15.73,0,0,1,2.41.9,23.67,23.67,0,0,1,2.48,1.21v5.9H441a21.36,21.36,0,0,0-4.1-3.08,17.73,17.73,0,0,0-3.08-1.27,13.41,13.41,0,0,0-3.8-.46,11.12,11.12,0,0,0-4.45.91,11.38,11.38,0,0,0-3.66,2.87,13.61,13.61,0,0,0-2.41,4.71,21.16,21.16,0,0,0-.85,6.35,21.74,21.74,0,0,0,.89,6.51,14.26,14.26,0,0,0,2.51,4.58,10.3,10.3,0,0,0,8,3.63,14.26,14.26,0,0,0,3.92-.49,15.23,15.23,0,0,0,5.54-2.86,14.39,14.39,0,0,0,1.55-1.35h.39v5.79c-.81.38-1.55.77-2.25,1.09a23.78,23.78,0,0,1-2.64,1,21.88,21.88,0,0,1-2.95.81A25,25,0,0,1,430,315.49Z"/><path class="cls-1" d="M442,314.89l12.33-36.69h6l12.35,36.69h-5.15l-3.33-10.28h-14l-3.33,10.28Zm20.89-14.46-5.67-17.23-5.6,17.23Z"/><path class="cls-1" d="M504.57,314.89h-6.33L486.65,300.3h-5.57v14.59h-4.87V278.2h9.42a34.49,34.49,0,0,1,5.29.32,10.81,10.81,0,0,1,4.07,1.61,9.85,9.85,0,0,1,3,3.15,10,10,0,0,1,1.12,4.83,10.89,10.89,0,0,1-2.06,6.79,11.9,11.9,0,0,1-5.57,4Zm-10.49-26.36a6.91,6.91,0,0,0-.55-2.82,5.3,5.3,0,0,0-1.78-2.07,7.36,7.36,0,0,0-2.39-.93,16.68,16.68,0,0,0-3.44-.27h-4.83v13.8h4.28a17.16,17.16,0,0,0,3.76-.38,5.4,5.4,0,0,0,2.87-1.53,5.65,5.65,0,0,0,1.56-2.46A10.09,10.09,0,0,0,494.08,288.53Z"/><path class="cls-1" d="M520.3,314.89H506v-3.76h4.7V281.95H506V278.2H520.3v3.74h-4.66v29.18h4.66Z"/><path class="cls-1" d="M522.3,314.89l12.39-36.69h6l12.36,36.69h-5.17l-3.3-10.28h-14l-3.34,10.28Zm20.94-14.46-5.66-17.23L532,300.43Z"/><path class="cls-1" d="M603.69,314.89h-4.86V283.28l-9.58,21.48h-2.95l-9.49-21.48v31.61h-4.55V278.2h6.64l9.16,20.4,8.85-20.4h6.77Z"/><path class="cls-1" d="M607.14,314.89,619.5,278.2h6l12.31,36.69h-5.11l-3.31-10.28h-14l-3.33,10.28Zm20.92-14.46-5.68-17.23-5.61,17.23Zm.58-36-6.72,9.19h-3.65l4.38-9.19Z"/><path class="cls-1" d="M651.57,315.49a23.46,23.46,0,0,1-6.79-.8,32,32,0,0,1-5.24-2v-6.08h.32a17.12,17.12,0,0,0,5.46,3.47,15.59,15.59,0,0,0,5.9,1.23c2.69,0,4.76-.51,6.11-1.66a5.93,5.93,0,0,0,1-8,6.25,6.25,0,0,0-3.41-2.08c-1.16-.33-2.19-.61-3.12-.78s-2.1-.54-3.49-.87a17.06,17.06,0,0,1-3.41-1.27,9.53,9.53,0,0,1-2.67-2,8.12,8.12,0,0,1-1.79-2.83,11.13,11.13,0,0,1-.63-3.78,9.56,9.56,0,0,1,3.48-7.49,13,13,0,0,1,8.84-3.06,26.52,26.52,0,0,1,5.85.64,23.51,23.51,0,0,1,5.12,1.75v5.87h-.37a15.83,15.83,0,0,0-4.5-2.78,13.43,13.43,0,0,0-5.73-1.23,9.1,9.1,0,0,0-5.55,1.59,5.11,5.11,0,0,0-2.06,4.17,5.2,5.2,0,0,0,1.23,3.72,6.64,6.64,0,0,0,3.57,2c1,.31,2.29.62,3.82,1s2.72.65,3.71,1a10.32,10.32,0,0,1,5.53,3.49,9.25,9.25,0,0,1,1.75,5.77,10.91,10.91,0,0,1-.86,4.21,10.65,10.65,0,0,1-2.45,3.59,13.13,13.13,0,0,1-4,2.44A16,16,0,0,1,651.57,315.49Z"/><path class="cls-1" d="M700.54,315.58a21.23,21.23,0,0,1-7.11-1.17,14.6,14.6,0,0,1-5.56-3.62,15.76,15.76,0,0,1-3.52-6,25.71,25.71,0,0,1-1.23-8.29,23.63,23.63,0,0,1,1.23-7.89,16.46,16.46,0,0,1,3.57-6,14.67,14.67,0,0,1,5.51-3.72,18.82,18.82,0,0,1,7.15-1.34,19.63,19.63,0,0,1,3.54.32,25.58,25.58,0,0,1,3.26.72,18.79,18.79,0,0,1,2.75,1,21,21,0,0,1,2.42,1.11v5.85h-.4a21.39,21.39,0,0,0-1.91-1.51,11.72,11.72,0,0,0-2.72-1.53,13.52,13.52,0,0,0-3.4-1.25,16.54,16.54,0,0,0-4.16-.51,10.36,10.36,0,0,0-8.53,4q-3.27,4-3.26,10.59a21.92,21.92,0,0,0,.86,6.43,12.77,12.77,0,0,0,2.49,4.69,10.53,10.53,0,0,0,3.79,2.88,11.92,11.92,0,0,0,5,1,27.12,27.12,0,0,0,4.1-.3,13.31,13.31,0,0,0,3.44-.86v-9.45h-8.45v-4.3h13.31v16a24.88,24.88,0,0,1-2.49,1,21.73,21.73,0,0,1-3,1,25,25,0,0,1-3.2.83A23.41,23.41,0,0,1,700.54,315.58Z"/><path class="cls-1" d="M747.22,314.89h-6.31L729.3,300.3h-5.57v14.59h-4.89V278.2h9.46a34.76,34.76,0,0,1,5.29.32,10.53,10.53,0,0,1,4.06,1.61,9.92,9.92,0,0,1,3,3.15,10.21,10.21,0,0,1,1.13,4.83,11,11,0,0,1-2,6.79,12.07,12.07,0,0,1-5.58,4Zm-10.46-26.36a6.53,6.53,0,0,0-.59-2.82,5.85,5.85,0,0,0-1.74-2.07,7.65,7.65,0,0,0-2.42-.93,16.66,16.66,0,0,0-3.44-.27h-4.84v13.8H728a17.79,17.79,0,0,0,3.81-.38,5.74,5.74,0,0,0,2.87-1.53,6,6,0,0,0,1.51-2.46A9.28,9.28,0,0,0,736.76,288.53Z"/><path class="cls-1" d="M746.14,314.89l12.38-36.69h6l12.35,36.69h-5.09l-3.31-10.28h-14l-3.3,10.28Zm21-14.46-5.67-17.23-5.63,17.23Z"/><path class="cls-1" d="M806.59,314.89h-5.42l-16.23-31.65v31.65h-4.56V278.2h6.9l14.78,29v-29h4.54Z"/><path class="cls-1" d="M842.94,296.56a19.37,19.37,0,0,1-2.06,9.05,15.36,15.36,0,0,1-5.43,6.27,17.13,17.13,0,0,1-5.64,2.39,37.66,37.66,0,0,1-7.34.61H814V278.2h8.34a34.59,34.59,0,0,1,8.12.76,16.37,16.37,0,0,1,5,2.16,15.36,15.36,0,0,1,5.5,6.21A20.44,20.44,0,0,1,842.94,296.56Zm-5.07-.09a16.59,16.59,0,0,0-1.41-7.16,10.25,10.25,0,0,0-4.17-4.67,12.37,12.37,0,0,0-4.17-1.67,21.11,21.11,0,0,0-5.5-.53h-3.7v28.19h3.7a27.36,27.36,0,0,0,5.66-.49,12.71,12.71,0,0,0,4.47-1.94,10.17,10.17,0,0,0,3.82-4.56A17.38,17.38,0,0,0,837.87,296.47Z"/><path class="cls-1" d="M848.22,314.89V278.2h22.92v4.32H853.09v10.1H870v4.33H853.09v13.62h18.05v4.32Z"/><path class="cls-1" d="M921.17,296.56a19.81,19.81,0,0,1-2,9.05,15.3,15.3,0,0,1-5.47,6.27,16.76,16.76,0,0,1-5.65,2.39,37,37,0,0,1-7.33.61h-8.46V278.2h8.37a34.78,34.78,0,0,1,8.12.76,16.41,16.41,0,0,1,5,2.16,15.71,15.71,0,0,1,5.5,6.21A20.58,20.58,0,0,1,921.17,296.56Zm-5-.09a16.67,16.67,0,0,0-1.42-7.16,10.84,10.84,0,0,0-4.17-4.67,12.73,12.73,0,0,0-4.16-1.67,21.44,21.44,0,0,0-5.54-.53h-3.7v28.19h3.7a28.15,28.15,0,0,0,5.7-.49,13.74,13.74,0,0,0,4.5-1.94,10.81,10.81,0,0,0,3.79-4.56A17.86,17.86,0,0,0,916.12,296.47Z"/><path class="cls-1" d="M926.44,314.89V278.2h23v4.32H931.35v10.1h16.84v4.33H931.35v13.62h18.06v4.32Z"/><path class="cls-1" d="M976,314.89H954.73V278.2h4.89v32.36H976Z"/><path class="cls-1" d="M995.55,314.89V278.2h23v4.32h-18.12v10.1h16.9v4.33h-16.9v13.62h18.12v4.32Z"/><path class="cls-1" d="M1038.2,315.49a17.35,17.35,0,0,1-6.63-1.18,14.43,14.43,0,0,1-5.21-3.6,16.34,16.34,0,0,1-3.37-6,27.53,27.53,0,0,1-.07-16.18,17.47,17.47,0,0,1,3.44-6,15.06,15.06,0,0,1,5.17-3.72,16.51,16.51,0,0,1,6.73-1.34,18.46,18.46,0,0,1,3.45.32,21.47,21.47,0,0,1,3,.7,16.88,16.88,0,0,1,2.4.9,21,21,0,0,1,2.43,1.21v5.9h-.39c-.43-.4-1-.89-1.62-1.44a23.22,23.22,0,0,0-2.48-1.64,18.51,18.51,0,0,0-3.06-1.27,13.48,13.48,0,0,0-3.83-.46,11,11,0,0,0-4.43.91,10.39,10.39,0,0,0-3.64,2.87,12.18,12.18,0,0,0-2.4,4.71,20.78,20.78,0,0,0-.91,6.35,21.57,21.57,0,0,0,.91,6.51,14.3,14.3,0,0,0,2.5,4.58,9.79,9.79,0,0,0,3.61,2.72,10,10,0,0,0,4.37.91,14,14,0,0,0,3.9-.49,16.68,16.68,0,0,0,3.22-1.29,17.73,17.73,0,0,0,2.35-1.57,19.87,19.87,0,0,0,1.55-1.35h.34v5.79c-.78.38-1.55.77-2.27,1.09a21.41,21.41,0,0,1-2.57,1,23,23,0,0,1-3,.81A24.55,24.55,0,0,1,1038.2,315.49Z"/><path class="cls-1" d="M1067,315.62a15.76,15.76,0,0,1-5.65-.86,10.93,10.93,0,0,1-4.14-2.52,10.82,10.82,0,0,1-2.68-4.59,23.28,23.28,0,0,1-.78-6.58V278.2h4.85v22.86a24.92,24.92,0,0,0,.32,4.28,8.47,8.47,0,0,0,1.28,3.12,5.93,5.93,0,0,0,2.67,2.22,9.89,9.89,0,0,0,4.12.78,10.12,10.12,0,0,0,4-.78,6.14,6.14,0,0,0,2.78-2.22,9.22,9.22,0,0,0,1.22-3.12,23.67,23.67,0,0,0,.32-4.16v-23h4.89v22.86a23.21,23.21,0,0,1-.8,6.56,10.07,10.07,0,0,1-2.69,4.62,11.77,11.77,0,0,1-4.12,2.59A17,17,0,0,1,1067,315.62Z"/><path class="cls-1" d="M1083.24,314.89l12.35-36.69h6L1114,314.89h-5.17l-3.33-10.28h-14l-3.32,10.28Zm20.9-14.46-5.66-17.23-5.62,17.23Z"/><path class="cls-1" d="M1146.36,296.56a19.41,19.41,0,0,1-2.08,9.05,15.12,15.12,0,0,1-5.43,6.27,17,17,0,0,1-5.63,2.39,38,38,0,0,1-7.37.61h-8.44V278.2h8.33a34.24,34.24,0,0,1,8.11.76,16.32,16.32,0,0,1,5.06,2.16,15.55,15.55,0,0,1,5.47,6.21A20.44,20.44,0,0,1,1146.36,296.56Zm-5.06-.09a17,17,0,0,0-1.43-7.16,10.41,10.41,0,0,0-4.14-4.67,12.7,12.7,0,0,0-4.2-1.67,21.12,21.12,0,0,0-5.52-.53h-3.68v28.19H1126a28.35,28.35,0,0,0,5.72-.49,13.2,13.2,0,0,0,4.45-1.94,10.66,10.66,0,0,0,3.81-4.56A18.09,18.09,0,0,0,1141.3,296.47Z"/><path class="cls-1" d="M1177.55,282.41a16.6,16.6,0,0,1,3.25,6,26.44,26.44,0,0,1,1.17,8.17,27.41,27.41,0,0,1-1.13,8,16,16,0,0,1-3.29,6,13.12,13.12,0,0,1-5.23,3.8,18.52,18.52,0,0,1-13.31-.06,13.72,13.72,0,0,1-5.09-3.74,16.5,16.5,0,0,1-3.26-6,26.38,26.38,0,0,1-1.11-8,25.19,25.19,0,0,1,1.16-8.16,18.1,18.1,0,0,1,3.24-6,14.5,14.5,0,0,1,5.09-3.73,17.25,17.25,0,0,1,6.67-1.25,16.76,16.76,0,0,1,6.78,1.3A14,14,0,0,1,1177.55,282.41Zm-.65,14.15a24.21,24.21,0,0,0-.79-6.45,13.05,13.05,0,0,0-2.22-4.65,9.12,9.12,0,0,0-3.51-2.86,11,11,0,0,0-4.62-.92,11.62,11.62,0,0,0-4.66.88,10.37,10.37,0,0,0-3.51,2.9,13.59,13.59,0,0,0-2.21,4.68,23.48,23.48,0,0,0-.77,6.43c0,4.79,1,8.48,3,11a10.54,10.54,0,0,0,16.24,0C1175.89,305,1176.89,301.35,1176.89,296.56Z"/><path class="cls-1" d="M1215.73,314.89h-6.36l-11.59-14.59h-5.61v14.59h-4.87V278.2h9.43a33.71,33.71,0,0,1,5.27.32,10.5,10.5,0,0,1,4.11,1.61,9.43,9.43,0,0,1,3,3.15,9.65,9.65,0,0,1,1.12,4.83,11,11,0,0,1-2,6.79,12.11,12.11,0,0,1-5.57,4Zm-10.52-26.36a6.82,6.82,0,0,0-.57-2.82,6,6,0,0,0-1.77-2.07,7.91,7.91,0,0,0-2.43-.93,16.3,16.3,0,0,0-3.44-.27h-4.84v13.8h4.32a18.19,18.19,0,0,0,3.79-.38,5.49,5.49,0,0,0,2.81-1.53,6.17,6.17,0,0,0,1.6-2.46A9.45,9.45,0,0,0,1205.21,288.53Z"/><path class="cls-2" d="M62.56,1.53C118,5.91,193.75-6.76,211.15,34.42c9.3,21.94-7.19,59.73-20.43,72.72-4.56,4.51-11.08,7.43-16.18,11.3,17.78,5.88,32.53,20.39,33.1,42.32.58,22.92-10.33,42.67-22.5,55C170.24,230.87,145.93,242,119,244c-37.12,2.69-79.68-2-118.9,0Q29.66,127.18,58.52,9.73c.63-.56.4-1.93,1.36-2.14m89.35,62.14c-5-11.72-18.14-15.15-35.88-14.13C108,70.24,104.27,86.47,100,102.15c28,3.54,50.22-4.48,49.22-32.42m-4.93,94.58c-2.79-17-34.32-17.08-55.51-15.53-4.44,16-7.81,33.11-12,49.35,31.39,5.53,72.58-2.94,67.47-33.82"/><path class="cls-2" d="M288.55,161.66c14.18.28,28.76.28,42.22,1.35-1.73-25.3-2.69-51.41-5.67-75.45-12.5,24.34-25.24,48.47-36.55,74.1M372.94,2.15l16.9,241.34H335.67c-.65-10.16-1.92-19.74-2.15-30.33H260.37c-5.47,10.19-10.33,21.12-15.46,31.76-18.85-.83-38.67-.76-57.67-1.43,41.47-78.85,82.58-161.61,124.5-239.94,20.32-.75,39.91-.57,61.19-1.4"/><path class="cls-2" d="M520,1.42c-20.45.85-42.06.61-62.63,1.38C438.05,81,419,166.64,399.68,244.92h64c10.17-40.17,18-82.7,28.86-122.16,11.79,41.37,25.53,80.71,37.22,122.16H594.5C613.7,166.48,632.88,81,652.21,2.8c-21-.65-41.22-.57-63.28-1.38-9.52,41.88-18.78,91.27-29.57,132Z"/><path class="cls-3" d="M727.51,150.64c12.68,30.56,31.61,60.91,45.7,92.45-12.59.93-25.94.18-38.7.68-3.26.1-8.41,1.9-11.89.71-2.87-.9-8-11.43-10.6-16.22-21.16-39.63-44.5-85.89-63.3-122,37.41.3,72.82-1.3,110.47-.78,5.69-17.54,10.21-36.33,15.45-54.27-37.7-1.78-77.87-.95-116.08-2.17,2.3-15.09,6.17-32.14,8.46-47.27,29.7,0,61.67.75,91,.84,22.73,0,65.66-5.69,68.7,16.81,1.29,9.33-4,21-6.32,30.34-5.07,20.27-10.11,37.33-15.5,57.86-2.43,9.42-3.77,21.58-7.73,28.19-10.56,17.82-43.13,13-69.64,14.87"/><path class="cls-3" d="M1000.46,243.58c3.25-15.16,7.56-29.14,11.24-43.8h114.67c13.21-48.58,25-98.63,37.26-148.16-22.33-1.75-47.39-.88-70.32-2.14-10.21,31.39-17.29,66-26.73,98.12-15.46-.45-28.81,1.21-44.33.73,11-48,22.71-98.92,34.48-146.11,27.86,0,43.6.25,77,.68,31.76.43,83.85-7.29,80.5,31.78-1.31,15.76-7.69,31.43-11.28,46.53-6.83,29.21-14.63,63.19-21.74,93.21-5,20.9-8.13,47.86-21.17,58.55-6.72,5.57-17.14,9.53-27.33,10.6-43.22,4.2-86.68-3.22-132.28,0"/><path class="cls-3" d="M1020.82,50.05c-56.24.22-116.75,1.18-175.82.74,4.47-14.61,7.56-34.56,11.92-49.27C915.18.66,972.73.94,1032.14,0"/><path class="cls-3" d="M831.59,99.86h172.35c-2.46,16.22-6.09,31.17-8.46,47.64-57.62,0-114.94-.47-171.6-1.57,2.07-16,4.49-31.46,7.7-46.06"/><path class="cls-3" d="M812.63,199H982.15c-3.27,15.79-7.77,30.33-11.25,45.91H802.08c2.26-15.41,6.68-28.42,9.14-43.62.58-.66.4-2.11,1.4-2.29"/></g></g></svg>