<?xml version="1.0" ?><svg viewBox="0 0 64 64" xmlns="http://www.w3.org/2000/svg"><g id="Flat"><g id="Color"><ellipse cx="32" cy="53.5" fill="#fccd1d" rx="29" ry="7.5"/><ellipse cx="32" cy="53.5" fill="#f9a215" rx="20" ry="3.5"/><path d="M54,25A22,22,0,1,0,22.86,45l7.82,7.84a2,2,0,0,0,2.64,0L41.14,45A22,22,0,0,0,54,25Z" fill="#dd051d"/><circle cx="32" cy="25" fill="#fff" r="18"/><rect fill="#111315" height="6" width="22" x="21" y="16"/><path d="M23.5,20h15a2,2,0,0,1,2,2V33a2,2,0,0,1-2,2h-15a0,0,0,0,1,0,0V20A0,0,0,0,1,23.5,20Z" fill="#212529" transform="translate(59.5 -4.5) rotate(90)"/><path d="M29,19V36H26.54a2,2,0,0,1-2-2V19Z" fill="#fccd1d"/><rect fill="#fccd1d" height="3" transform="translate(64.5 -4.5) rotate(90)" width="4" x="32.5" y="28.5"/></g></g></svg>