<?xml version="1.0" encoding="utf-8"?>
<!-- Svg Vector Icons : http://www.onlinewebfonts.com/icon -->
<!DOCTYPE svg PUBLIC "-//W3C//DTD SVG 1.1//EN" "http://www.w3.org/Graphics/SVG/1.1/DTD/svg11.dtd">
<svg version="1.1" xmlns="http://www.w3.org/2000/svg" xmlns:xlink="http://www.w3.org/1999/xlink" x="0px" y="0px" viewBox="0 0 1000 1000" enable-background="new 0 0 1000 1000" xml:space="preserve">
<metadata> Svg Vector Icons : http://www.onlinewebfonts.com/icon </metadata>
<g><g transform="translate(0.000000,512.000000) scale(0.100000,-0.100000)"><path d="M1828.4,4981.7c-40.2-23-68.9-61.3-82.3-109.1c-15.3-51.7-19.1-1383.9-15.3-4700.9l5.7-4630.1l63.2-55.5c55.5-49.8,74.7-55.5,195.2-55.5h134l30.6-76.6c51.7-128.3,76.6-134,595.3-134c415.3,0,461.3,3.8,514.9,36.4c38.3,23,70.8,65.1,84.2,105.3l23,68.9H5000h1623.1l23-68.9c13.4-40.2,45.9-82.3,84.2-105.3c53.6-32.5,99.5-36.4,514.9-36.4c516.8,0,543.6,5.7,597.2,137.8l28.7,72.7h134c120.6,0,139.7,5.7,195.2,55.5l63.2,55.5l5.7,4630.1c3.8,3317.1,0,4649.3-15.3,4700.9c-13.4,47.9-42.1,86.1-82.3,109.1c-59.3,38.3-122.5,38.3-3171.6,38.3S1887.7,5020,1828.4,4981.7z M7852,225.3v-4392.8H5000H2148V225.3V4618h2852h2852V225.3z" fill="#78909C"/><path d="M2550,2359.5V522h2038.5H6627v1837.5V4197H4588.5H2550V2359.5z M6225,2369V943H4588.5H2951.9v1426v1426h1636.5H6225V2369z" fill="#78909C"/><path d="M3495.5,3373.9c-126.3-51.7-160.8-223.9-67-329.2l55.5-63.2l1050.8-5.7c576.1-3.8,1075.7,0,1108.2,5.7c74.7,13.4,155,90,170.4,162.7c17.2,78.5-36.4,181.8-114.8,218.2c-55.5,26.8-195.2,30.6-1114,28.7C4008.5,3391.1,3516.6,3383.5,3495.5,3373.9z" fill="#78909C"/><path d="M3470.7,2543.2c-111-61.3-132.1-227.8-42.1-319.7l55.5-55.5h794.3c765.6,0,794.3,1.9,842.2,38.3c72.7,57.4,99.5,153.1,63.2,235.4c-51.7,128.2-55.5,128.2-905.3,128.2C3683.1,2568.1,3507,2562.3,3470.7,2543.2z" fill="#78909C"/><path d="M3428.5,1691.4c-63.2-63.2-74.6-158.9-28.7-248.8c47.9-90,91.9-97.6,578.1-97.6c507.2,0,543.6,7.7,593.4,128.3c38.3,88,19.1,164.6-53.6,225.8l-57.4,47.9h-488.1h-488.1L3428.5,1691.4z" fill="#78909C"/><path d="M7170.6,3373.9c-67-26.8-122.5-112.9-122.5-191.4c0-137.8,130.2-233.5,258.4-191.4C7383,3016,7450,3104,7450,3178.7c0,74.7-55.5,158.9-124.4,187.6C7250.9,3396.9,7228,3396.9,7170.6,3373.9z" fill="#78909C"/><path d="M7153.3,2547c-70.8-38.3-105.3-99.5-105.3-183.7c0-201,268-273.7,369.4-99.5c53.6,88,42.1,166.5-32.5,241.2C7316,2573.8,7229.9,2589.1,7153.3,2547z" fill="#78909C"/><path d="M7103.6,1691.4c-91.9-93.8-65.1-271.8,49.8-323.5c90-42.1,160.8-28.7,231.6,42.1c137.8,137.8,45.9,336.9-155,336.9C7178.2,1747,7145.7,1731.6,7103.6,1691.4z" fill="#78909C"/><path d="M2670.6-310.7c-63.2-26.8-120.6-112.9-120.6-181.8c0-23,13.4-67,30.6-97.6c55.5-111,76.6-112.9,995.3-112.9c928.3,0,934.1,0,991.5,124.4c17.2,34.5,30.6,72.7,30.6,86.1s-13.4,51.7-30.6,86.1C4510-282,4504.3-282,3570.2-282C2900.3-283.9,2720.3-289.6,2670.6-310.7z" fill="#78909C"/><path d="M5522.5-312.6c-55.5-28.7-120.6-124.4-120.6-179.9c0-65.1,67-155,135.9-185.7l74.6-32.5v-809.6V-2330h823h823.1v813.5V-703l65.1,26.8c68.9,28.7,126.3,112.9,126.3,183.7s-57.4,155-124.4,183.7C7224.1-266.6,5610.6-270.5,5522.5-312.6z M6627-743.2c0-67-101.4-151.2-181.8-151.2c-116.8,0-220.1,82.3-220.1,172.3c0,11.5,86.1,19.1,201,19.1C6617.4-703,6627-705,6627-743.2z M6336-1298.3c135.9-24.9,300.5,9.6,424.9,88l76.6,47.9v-382.8V-1928H6426h-411.5v382.8v382.8l103.4-57.4C6173.3-1252.4,6272.8-1286.8,6336-1298.3z" fill="#78909C"/><path d="M2615.1-1170.1c-72.7-72.7-84.2-147.4-38.3-239.3c57.4-111,227.8-132.1,319.7-42.1c90,91.9,68.9,262.2-42.1,319.6C2762.5-1085.9,2687.8-1097.3,2615.1-1170.1z" fill="#78909C"/><path d="M3478.3-1128c-70.8-38.3-105.3-99.5-105.3-183.8c0-201,268-273.7,369.4-99.5c53.6,88,42.1,166.5-32.5,241.2C3641-1101.2,3554.9-1085.9,3478.3-1128z" fill="#78909C"/><path d="M4291.8-1129.9c-65.1-32.5-120.6-151.2-105.3-223.9c28.7-132.1,214.4-199.1,321.6-114.8C4699.5-1317.5,4510-1020.8,4291.8-1129.9z" fill="#78909C"/><path d="M2634.2-1962.5c-105.3-84.2-112.9-208.6-19.1-302.4c74.6-74.7,153.1-86.1,241.2-32.5c174.2,101.4,101.4,369.4-99.5,369.4C2707-1928,2657.2-1941.4,2634.2-1962.5z" fill="#78909C"/><path d="M3428.5-1983.6c-95.7-95.7-63.2-275.6,57.4-327.3c174.2-70.8,350.3,111,268,273.7c-36.4,72.7-97.6,109.1-185.7,109.1C3501.3-1928,3474.5-1939.5,3428.5-1983.6z" fill="#78909C"/><path d="M4257.3-1975.9c-72.7-61.3-91.9-137.8-53.6-225.9c28.7-70.8,111-128.2,183.8-128.2c118.7,0,225.9,134,201,250.7c-17.2,80.4-111,151.2-201,151.2C4335.8-1928,4295.6-1943.3,4257.3-1975.9z" fill="#78909C"/><path d="M2670.6-2760.7c-63.2-26.8-120.6-112.9-120.6-181.8c0-70.8,57.4-155,128.2-183.7c130.2-55.5,273.7,40.2,273.7,181.8c0,88-44,151.2-126.3,185.6C2749.1-2726.2,2747.1-2726.2,2670.6-2760.7z" fill="#78909C"/><path d="M3512.8-2745.4c-23-3.8-65.1-34.5-91.9-65.1c-134-162.7,34.5-396.2,225.9-315.8c70.8,28.7,128.2,112.9,128.2,183.7c0,70.8-57.4,155-124.4,183.7c-36.4,15.3-72.7,24.9-80.4,24.9C3562.5-2735.8,3535.7-2741.5,3512.8-2745.4z" fill="#78909C"/><path d="M4297.5-2762.6c-74.6-36.4-128.2-141.7-111-218.2c15.3-70.8,91.9-147.4,162.7-162.7c78.5-17.2,181.8,36.4,218.2,114.8c17.2,34.5,30.6,72.7,30.6,86.1c0,57.4-65.1,153.1-124.4,179.9C4395.2-2724.3,4374.1-2724.3,4297.5-2762.6z" fill="#78909C"/></g></g>
</svg>